<svg xmlns="http://www.w3.org/2000/svg" width="256" height="256" viewBox="0 0 256 256" fill="none">
  <g transform="translate(1.4066 1.4066) scale(2.81 2.81)">
    <path d="M81.353 50.79L63.143 36.799l18.302-15.87c0.834-0.723 0.924-1.986 0.2-2.82c-0.723-0.834-1.985-0.925-2.82-0.201L58.682 35.374l-4.921 4.267L28.669 17.907c-0.834-0.724-2.096-0.633-2.82 0.201c-0.723 0.834-0.634 2.097 0.201 2.82l18.44 15.99l-12.442 9.912c-0.864 0.688-1.006 1.946-0.318 2.81c0.395 0.496 0.977 0.754 1.565 0.754c0.436 0 0.876-0.143 1.244-0.435l13.024-10.375l4.874 4.226c0.376 0.326 0.843 0.489 1.31 0.489c0.467 0 0.934-0.163 1.31-0.489l5.002-4.337l18.858 14.488c0.363 0.279 0.792 0.414 1.217 0.414c0.599 0 1.193-0.268 1.586-0.781C82.393 52.718 82.229 51.463 81.353 50.79z" fill="currentColor" stroke="currentColor" stroke-width="1.5" stroke-linecap="round"/>
    <path d="M84.004 10.598H23.49c-3.306 0-5.996 2.69-5.996 5.996v1.616c-1.125-0.827-2.636-1.044-3.982-0.453c-0.87 0.383-2.006 0.88-3.19 1.394l-0.032 0.014c-2.526 1.095-4.385 1.88-5.378 2.269c-0.741 0.29-1.362 0.72-1.845 1.278c-8.173 9.429 1.178 26.658 14.071 39.551c9.539 9.539 21.449 17.14 30.82 17.139c3.296-0.001 6.278-0.941 8.731-3.066c0.557-0.483 0.987-1.104 1.278-1.846c0.395-1.009 1.171-2.847 2.304-5.456c0.507-1.168 0.996-2.286 1.373-3.144c0.621-1.413 0.355-3.01-0.578-4.148h22.939c3.307 0 5.996-2.69 5.996-5.996v-39.15C90 13.288 87.31 10.598 84.004 10.598zM56.603 67.439c-1.152 2.656-1.947 4.538-2.36 5.592c-0.05 0.127-0.113 0.23-0.173 0.282c-7.118 6.171-22.543-2.315-34.105-13.877C8.402 47.872-0.078 32.445 6.088 25.331c0.053-0.061 0.156-0.124 0.283-0.174c1.063-0.416 2.944-1.21 5.592-2.359v0c1.173-0.509 2.296-1 3.168-1.373l7.266 12.256l-4.505 8.393c-0.843 1.57-0.562 3.471 0.698 4.732l14.007 14.007c1.262 1.26 3.164 1.541 4.731 0.696l8.404-4.505l12.245 7.267l0.006 0.01C57.603 65.144 57.11 66.268 56.603 67.439zM86.001 55.744c0 1.101-0.896 1.997-1.997 1.997H54.809l-7.038-4.177c-1.201-0.712-2.711-0.744-3.942-0.083l-8.406 4.503l-14.008-14.02l4.505-8.392c0.66-1.231 0.628-2.741-0.084-3.943l-4.343-7.319v-7.716c0-1.101 0.896-1.997 1.997-1.997h60.514c1.101 0 1.997 0.896 1.997 1.997V55.744z" fill="currentColor" stroke="currentColor" stroke-width="1.5" stroke-linecap="round"/>
  </g>
</svg>
